HIERARCHY
ROOT hip
{
  OFFSET 0 0 0
  CHANNELS 6 Xposition Yposition Zposition Zrotation Yrotation Xrotation
  JOINT abdomen
  {
    OFFSET 0 20.6881 -0.73152
    CHANNELS 3 Zrotation Xrotation Yrotation
    JOINT chest
    {
      OFFSET 0 11.7043 -0.48768
      CHANNELS 3 Zrotation Xrotation Yrotation
      JOINT neck
      {
        OFFSET 0 22.1894 -2.19456
        CHANNELS 3 Zrotation Xrotation Yrotation
        JOINT head
        {
          OFFSET -0.24384 7.07133 1.2192
          CHANNELS 3 Zrotation Xrotation Yrotation
          JOINT leftEye
          {
            OFFSET 4.14528 8.04674 8.04672
            CHANNELS 3 Zrotation Xrotation Yrotation
            End Site
            {
              OFFSET 1 0 0
            }
          }
          JOINT rightEye
          {
            OFFSET -3.6576 8.04674 8.04672
            CHANNELS 3 Zrotation Xrotation Yrotation
            End Site
            {
              OFFSET 1 0 0
            }
          }
        }
      }
      JOINT rCollar
      {
        OFFSET -2.68224 19.2634 -4.8768
        CHANNELS 3 Zrotation Xrotation Yrotation
        JOINT rShldr
        {
          OFFSET -8.77824 -1.95073 1.46304
          CHANNELS 3 Zrotation Xrotation Yrotation
          JOINT rForeArm
          {
            OFFSET -28.1742 -1.7115 0.48768
            CHANNELS 3 Zrotation Xrotation Yrotation
            JOINT rHand
            {
              OFFSET -22.5879 0.773209 7.07136
              CHANNELS 3 Zrotation Xrotation Yrotation
              JOINT rThumb1
              {
                OFFSET -1.2192 -0.487915 3.41376
                CHANNELS 3 Zrotation Xrotation Yrotation
                JOINT rThumb2
                {
                  OFFSET -3.37035 -0.52449 3.41376
                  CHANNELS 3 Zrotation Xrotation Yrotation
                  End Site
                  {
                    OFFSET -1.78271 -1.18214 1.43049
                  }
                }
              }
              JOINT rIndex1
              {
                OFFSET -7.75947 0.938293 5.60832
                CHANNELS 3 Zrotation Xrotation Yrotation
                JOINT rIndex2
                {
                  OFFSET -2.54057 -0.884171 1.56538
                  CHANNELS 3 Zrotation Xrotation Yrotation
                  End Site
                  {
                    OFFSET -1.62519 -0.234802 1.16502
                  }
                }
              }
              JOINT rMid1
              {
                OFFSET -8.24714 1.18213 3.41376
                CHANNELS 3 Zrotation Xrotation Yrotation
                JOINT rMid2
                {
                  OFFSET -3.10165 -0.590103 1.0647
                  CHANNELS 3 Zrotation Xrotation Yrotation
                  End Site
                  {
                    OFFSET -2.48547 -0.328903 0.83742
                  }
                }
              }
              JOINT rRing1
              {
                OFFSET -8.82822 0.546677 1.51678
                CHANNELS 3 Zrotation Xrotation Yrotation
                JOINT rRing2
                {
                  OFFSET -2.60934 -0.819778 -0.0198488
                  CHANNELS 3 Zrotation Xrotation Yrotation
                  End Site
                  {
                    OFFSET -2.33842 -0.294052 0.168128
                  }
                }
              }
              JOINT rPinky1
              {
                OFFSET -8.27202 -0.0477905 -0.4584
                CHANNELS 3 Zrotation Xrotation Yrotation
                JOINT rPinky2
                {
                  OFFSET -1.82734 -0.647385 -0.700984
                  CHANNELS 3 Zrotation Xrotation Yrotation
                  End Site
                  {
                    OFFSET -1.69225 -0.51767 -0.607171
                  }
                }
              }
            }
          }
        }
      }
      JOINT lCollar
      {
        OFFSET 2.68224 19.2634 -4.8768
        CHANNELS 3 Zrotation Xrotation Yrotation
        JOINT lShldr
        {
          OFFSET 8.77824 -1.95073 1.46304
          CHANNELS 3 Zrotation Xrotation Yrotation
          JOINT lForeArm
          {
            OFFSET 28.1742 -1.7115 0.48768
            CHANNELS 3 Zrotation Xrotation Yrotation
            JOINT lHand
            {
              OFFSET 22.5879 0.773209 7.07136
              CHANNELS 3 Zrotation Xrotation Yrotation
              JOINT lThumb1
              {
                OFFSET 1.2192 -0.487915 3.41376
                CHANNELS 3 Zrotation Xrotation Yrotation
                JOINT lThumb2
                {
                  OFFSET 3.37035 -0.52449 3.41376
                  CHANNELS 3 Zrotation Xrotation Yrotation
                  End Site
                  {
                    OFFSET 1.78271 -1.18214 1.43049
                  }
                }
              }
              JOINT lIndex1
              {
                OFFSET 7.75947 0.938293 5.60832
                CHANNELS 3 Zrotation Xrotation Yrotation
                JOINT lIndex2
                {
                  OFFSET 2.54057 -0.884171 1.56538
                  CHANNELS 3 Zrotation Xrotation Yrotation
                  End Site
                  {
                    OFFSET 1.62519 -0.234802 1.16502
                  }
                }
              }
              JOINT lMid1
              {
                OFFSET 8.24714 1.18213 3.41376
                CHANNELS 3 Zrotation Xrotation Yrotation
                JOINT lMid2
                {
                  OFFSET 3.10165 -0.590103 1.0647
                  CHANNELS 3 Zrotation Xrotation Yrotation
                  End Site
                  {
                    OFFSET 2.48547 -0.328903 0.83742
                  }
                }
              }
              JOINT lRing1
              {
                OFFSET 8.82822 0.546677 1.51678
                CHANNELS 3 Zrotation Xrotation Yrotation
                JOINT lRing2
                {
                  OFFSET 2.60934 -0.819778 -0.0198488
                  CHANNELS 3 Zrotation Xrotation Yrotation
                  End Site
                  {
                    OFFSET 2.33842 -0.294052 0.168128
                  }
                }
              }
              JOINT lPinky1
              {
                OFFSET 8.27202 -0.0477905 -0.4584
                CHANNELS 3 Zrotation Xrotation Yrotation
                JOINT lPinky2
                {
                  OFFSET 1.82734 -0.647385 -0.700984
                  CHANNELS 3 Zrotation Xrotation Yrotation
                  End Site
                  {
                    OFFSET 1.69225 -0.51767 -0.607171
                  }
                }
              }
            }
          }
        }
      }
    }
  }
  JOINT rButtock
  {
    OFFSET -8.77824 4.35084 1.2192
    CHANNELS 3 Zrotation Xrotation Yrotation
    JOINT rThigh
    {
      OFFSET 0 -1.70687 -2.19456
      CHANNELS 3 Zrotation Xrotation Yrotation
      JOINT rShin
      {
        OFFSET 0 -36.8199 0.73152
        CHANNELS 3 Zrotation Xrotation Yrotation
        JOINT rFoot
        {
          OFFSET 0.73152 -45.1104 -5.12064
          CHANNELS 3 Zrotation Xrotation Yrotation
          End Site
          {
            OFFSET -1.1221 -3.69964 12.103
          }
        }
      }
    }
  }
  JOINT lButtock
  {
    OFFSET 8.77824 4.35084 1.2192
    CHANNELS 3 Zrotation Xrotation Yrotation
    JOINT lThigh
    {
      OFFSET 0 -1.70687 -2.19456
      CHANNELS 3 Zrotation Xrotation Yrotation
      JOINT lShin
      {
        OFFSET 0 -36.8199 0.73152
        CHANNELS 3 Zrotation Xrotation Yrotation
        JOINT lFoot
        {
          OFFSET -0.73152 -45.1104 -5.12064
          CHANNELS 3 Zrotation Xrotation Yrotation
          End Site
          {
            OFFSET 1.1221 -3.69964 12.103
          }
        }
      }
    }
  }
}
MOTION
Frames:	4
Frame Time:	0.00833333
-59.8987 85.0114 -179.015 0.0 0.0 0.0 0.0256064 -6.19206e-06 0.00072884 0.00706479 8.63096e-06 0.00122382 -4.1461e-16 -7.95139e-16 1.16475e-18 -1.24551e-15 3.18055e-15 6.21202e-18 -0.0 0.0 0.0 -0.0 0.0 0.0 -1.50419e-16 0.0 1.98785e-16 -2.41871e-15 2.17421e-16 7.95139e-16 -7.19104e-14 2.66371e-14 1.27222e-14 -8.6129e-13 -7.62836e-15 -1.90833e-14 -2.0267e-12 4.031e-14 9.54166e-15 -3.50577e-12 6.67917e-14 1.19271e-14 -2.02045e-12 4.41302e-14 -1.27222e-14 7.73091 5.47488 0.417314 -2.02651e-12 4.08502e-14 6.36111e-15 2.90554 0.965183 0.102902 -2.01824e-12 4.06515e-14 8.74653e-15 10.2786 0.731801 0.0259123 -2.03536e-12 4.01545e-14 2.22639e-14 2.22167 -0.733487 -0.20892 -2.47164e-16 0.0 -1.98785e-16 -6.32859e-15 3.23025e-16 -7.95139e-16 -7.71284e-14 -2.04748e-14 -6.36111e-15 -8.58868e-13 2.66371e-14 2.22639e-14 -2.0279e-12 9.49851e-15 2.22639e-14 -3.49106e-12 1.90833e-14 2.38542e-14 -2.03396e-12 1.27222e-14 2.8625e-14 -7.73091 5.47488 -0.417314 -2.02845e-12 9.24349e-15 9.54166e-15 -2.90554 0.965183 -0.102902 -2.03588e-12 9.64106e-15 1.27222e-14 -10.2786 0.731801 -0.0259123 -2.02721e-12 9.54166e-15 0.0 -2.22167 -0.733487 0.20892 -2.03217e-16 0.0 -3.88251e-19 0.512301 -3.13364 -0.0420886 -0.00562803 0.1231 -0.0495525 -0.492801 3.00963 0.11736 2.03217e-16 0.0 3.88251e-19 -0.473323 -3.03453 0.0397104 0.00592197 -0.056435 0.0521749 0.492503 3.09005 -0.118955
-59.9207 82.8366 -179.686 -0.1232 0.6206 0.5282 0.877685 1.0038 -1.31171 1.60054 -0.074145 -0.32476 -3.17397 2.3202 -0.0201877 2.20764 -2.47539 0.54013 -0.0 0.0 0.0 -0.0 0.0 0.0 2.16911e-15 -3.92007e-15 -3.57055e-14 21.8544 0.577477 -2.01147 -2.72003 -1.03597 4.44304 0.0636842 5.70173 0.787786 6.92713e-11 -2.84759e-10 -1.20027e-10 1.17049e-10 -4.9234e-10 -2.08602e-10 6.9275e-11 -2.84756e-10 -1.20045e-10 7.73091 5.47488 0.417314 6.92704e-11 -2.84758e-10 -1.2003e-10 2.90554 0.965183 0.102902 6.92783e-11 -2.84759e-10 -1.20029e-10 10.2786 0.731801 0.0259123 6.92617e-11 -2.84758e-10 -1.20017e-10 2.22167 -0.733487 -0.20892 2.04899e-15 -3.91985e-15 -3.60658e-14 -22.8708 2.9392 -0.792753 5.78913 -3.04275 -8.54945 -0.000157827 0.378566 -0.0532051 1.51812e-10 5.56238e-10 -2.21707e-10 2.62392e-10 9.62565e-10 -3.84937e-10 1.51807e-10 5.56241e-10 -2.217e-10 -7.73091 5.47488 -0.417314 1.51812e-10 5.56239e-10 -2.21714e-10 -2.90554 0.965183 -0.102902 1.51809e-10 5.56241e-10 -2.21713e-10 -10.2786 0.731801 -0.0259123 1.51815e-10 5.56238e-10 -2.21725e-10 -2.22167 -0.733487 0.20892 -2.03217e-16 0.0 -3.88251e-19 2.33567 -9.77848 2.48935 -0.0522499 9.28805 -0.0109918 -0.567046 1.16629 -1.85998 2.03217e-16 0.0 3.88251e-19 0.110807 -7.34132 0.678993 0.000194559 17.0787 -0.178859 0.329182 4.23223 -4.33794
-59.954 83.2248 -178.194 -0.0904 1.1246 0.47 1.81584 2.0655 -2.72621 3.28315 -0.149578 -0.676787 -6.51774 4.75384 -0.0396928 4.58845 -5.06912 1.11918 -0.0 0.0 0.0 -0.0 0.0 0.0 3.627e-15 -8.59799e-15 -7.56593e-14 45.002 1.04011 -4.16141 -5.38514 -2.08928 9.08779 -0.0451545 11.8484 1.66462 1.58053e-10 -6.07995e-10 -2.44027e-10 2.67615e-10 -1.05124e-09 -4.24288e-10 1.58053e-10 -6.07993e-10 -2.4404e-10 7.73091 5.47488 0.417314 1.5805e-10 -6.07993e-10 -2.44031e-10 2.90554 0.965183 0.102902 1.58058e-10 -6.07994e-10 -2.44031e-10 10.2786 0.731801 0.0259123 1.58042e-10 -6.07992e-10 -2.4402e-10 2.22167 -0.733487 -0.20892 3.47978e-15 -8.59762e-15 -7.59823e-14 -46.9435 6.04317 -1.66793 10.938 -6.03816 -17.6714 0.000517252 0.749216 -0.105309 3.33632e-10 1.18478e-09 -4.66477e-10 5.76636e-10 2.05022e-09 -8.09974e-10 3.33628e-10 1.18478e-09 -4.66471e-10 -7.73091 5.47488 -0.417314 3.33633e-10 1.18478e-09 -4.66479e-10 -2.90554 0.965183 -0.102902 3.33634e-10 1.18479e-09 -4.6648e-10 -10.2786 0.731801 -0.0259123 3.33637e-10 1.18478e-09 -4.66493e-10 -2.22167 -0.733487 0.20892 -2.03217e-16 0.0 -3.88251e-19 4.90484 -16.8163 5.30606 -0.116483 18.9884 0.0302004 -0.781635 -0.749358 -3.95443 2.03217e-16 0.0 3.88251e-19 0.806438 -11.8003 1.32388 0.172492 35.163 -0.497421 0.344346 5.4353 -8.88114
-59.9813 83.4226 -176.775 -0.0149 1.3788 0.5102 2.71985 3.0051 -3.9414 4.78496 -0.222423 -0.976734 -9.51697 6.96058 -0.0609627 6.76391 -7.42353 1.63257 -0.0 0.0 0.0 -0.0 0.0 0.0 6.80816e-15 -1.17602e-14 -1.07514e-13 65.6846 1.72389 -6.03686 -7.68235 -3.03325 13.346 -0.297664 17.0919 2.46039 2.11867e-10 -8.54359e-10 -3.60099e-10 3.5816e-10 -1.47715e-09 -6.25829e-10 2.11866e-10 -8.54357e-10 -3.60108e-10 7.73091 5.47488 0.417314 2.11864e-10 -8.54356e-10 -3.60103e-10 2.90554 0.965183 0.102902 2.11871e-10 -8.54357e-10 -3.60104e-10 10.2786 0.731801 0.0259123 2.11856e-10 -8.54354e-10 -3.60095e-10 2.22167 -0.733487 -0.20892 6.6413e-15 -1.17596e-14 -1.078e-13 -68.366 8.81079 -2.40351 14.7206 -8.31686 -25.9042 0.0016361 1.13569 -0.159643 4.59491e-10 1.6687e-09 -6.65164e-10 7.94159e-10 2.88766e-09 -1.15486e-09 4.59489e-10 1.6687e-09 -6.65158e-10 -7.73091 5.47488 -0.417314 4.59492e-10 1.6687e-09 -6.65161e-10 -2.90554 0.965183 -0.102902 4.59498e-10 1.6687e-09 -6.65163e-10 -10.2786 0.731801 -0.0259123 4.59498e-10 1.6687e-09 -6.65177e-10 -2.22167 -0.733487 0.20892 -2.03217e-16 0.0 -3.88251e-19 7.87076 -22.8896 8.08387 -0.185427 27.6179 0.0751213 -1.09673 -2.5056 -5.81875 2.03217e-16 0.0 3.88251e-19 1.57782 -15.947 2.01869 0.603025 51.3451 -0.988239 0.504323 6.39089 -12.8217
